<?xml version="1.0" standalone="no"?>
<!DOCTYPE svg PUBLIC "-//W3C//DTD SVG 20010904//EN"
 "http://www.w3.org/TR/2001/REC-SVG-20010904/DTD/svg10.dtd">
<svg version="1.0" xmlns="http://www.w3.org/2000/svg"
 width="800.000000pt" height="800.000000pt" viewBox="0 0 800.000000 800.000000"
 preserveAspectRatio="xMidYMid meet">
<metadata>
Created by potrace 1.14, written by Peter Selinger 2001-2017
</metadata>
<g transform="translate(0.000000,800.000000) scale(0.100000,-0.100000)"
fill="#000000" stroke="none">
<path d="M2820 6985 c-62 -13 -143 -36 -185 -55 -28 -12 -59 -22 -64 -20 -2 1
-7 -2 -10 -7 -3 -4 -22 -17 -41 -27 -79 -43 -146 -93 -215 -160 -150 -148
-243 -317 -285 -519 -23 -117 -21 -330 6 -419 3 -9 6 -25 8 -35 18 -88 88
-236 159 -332 72 -97 250 -261 285 -261 5 0 12 -3 14 -7 12 -28 218 -107 321
-124 75 -13 104 -29 51 -29 -63 0 -212 -47 -317 -101 -185 -93 -331 -237 -431
-424 -39 -72 -83 -193 -92 -255 -3 -19 -9 -39 -12 -45 -10 -16 -11 -258 -1
-310 18 -98 24 -120 44 -180 28 -81 112 -245 127 -245 4 0 8 -4 8 -10 0 -23
139 -166 220 -227 125 -94 355 -183 472 -183 17 0 28 -3 24 -7 -7 -7 -10 -8
-82 -18 -34 -4 -98 -22 -182 -50 -7 -3 -14 -5 -17 -5 -15 -3 -139 -71 -189
-104 -72 -49 -189 -162 -244 -238 -46 -62 -132 -226 -132 -250 0 -8 -3 -18 -7
-22 -4 -3 -8 -12 -9 -19 -1 -7 -7 -31 -13 -54 -20 -74 -26 -126 -26 -243 1
-103 9 -203 20 -220 2 -4 6 -17 9 -31 14 -74 101 -269 138 -309 10 -11 18 -22
18 -25 0 -19 149 -169 223 -224 53 -39 222 -131 236 -129 3 1 19 -4 34 -10 92
-38 368 -63 463 -42 22 5 52 11 68 14 124 22 317 112 391 184 8 6 17 12 20 12
10 0 126 118 167 170 74 93 154 255 171 345 2 11 7 27 10 35 11 27 17 73 23
170 2 52 7 101 9 108 2 6 1 12 -4 12 -5 0 -5 18 -1 40 4 22 5 42 2 45 -7 7 -4
154 3 166 4 5 1 9 -5 9 -6 0 -9 4 -5 9 7 12 10 159 4 165 -3 3 -2 34 1 70 3
36 3 66 0 66 -6 0 -4 99 3 106 2 3 1 20 -3 39 -4 19 -5 36 -2 39 3 3 4 38 3
78 -1 40 -2 78 -2 83 0 6 1 35 1 65 1 30 1 60 0 65 -4 25 0 157 5 165 3 5 1
11 -5 15 -6 4 -7 11 -4 17 9 13 8 134 -1 148 -3 5 -2 10 2 10 5 0 6 32 3 70
-3 39 -2 70 3 70 4 0 6 4 3 9 -6 10 -9 113 -6 216 l2 60 14 -70 c17 -80 22
-99 24 -102 2 -2 3 -6 4 -10 8 -36 73 -183 85 -193 4 -3 12 -16 19 -30 28 -58
61 -98 165 -202 49 -48 95 -88 103 -88 8 0 14 -4 14 -8 0 -5 12 -15 28 -23 15
-8 29 -16 32 -19 19 -21 226 -105 283 -115 111 -20 158 -23 262 -19 106 3 170
9 170 14 0 1 7 3 15 5 29 6 135 38 150 45 8 4 44 22 80 39 65 32 101 52 110
61 3 3 23 18 45 34 53 39 205 197 205 214 0 7 7 15 15 18 8 4 15 12 15 19 0 7
8 23 19 36 38 49 101 216 127 334 12 61 12 271 -1 345 -48 265 -196 496 -423
658 -17 12 -35 22 -41 22 -5 0 -11 3 -13 8 -8 17 -248 120 -248 106 0 -4 -7
-1 -15 6 -8 7 -15 10 -15 7 0 -3 -14 -2 -31 3 -17 5 -51 10 -74 11 -51 3 -52
14 -3 17 19 1 45 5 58 8 14 3 39 8 55 11 96 17 275 104 375 182 203 159 336
382 378 636 14 84 5 346 -13 375 -2 4 -6 17 -9 31 -34 180 -199 426 -371 552
-27 20 -56 41 -62 47 -7 6 -13 8 -13 5 0 -4 -13 3 -30 15 -38 27 -154 75 -250
102 -75 22 -76 22 -1215 24 -903 1 -1154 -1 -1205 -11z m1338 -1985 c12 0 30
0 40 0 9 0 35 0 57 1 22 0 46 0 53 0 17 -1 29 -1 170 -1 67 1 127 -2 132 -5 6
-3 10 -3 10 2 0 9 279 8 286 -1 2 -3 2 -4 -1 -2 -3 2 -27 -1 -53 -6 -26 -4
-60 -11 -76 -14 -168 -30 -399 -167 -522 -310 -58 -67 -124 -159 -124 -173 0
-5 -7 -14 -15 -21 -9 -7 -13 -15 -11 -17 3 -3 -4 -22 -15 -42 -33 -65 -89
-274 -81 -304 1 -5 -2 -6 -8 -2 -6 3 -8 10 -5 15 5 8 6 43 4 130 0 8 0 40 0
70 1 30 0 83 0 118 -1 35 1 65 4 68 2 3 1 20 -3 39 -4 19 -5 37 -2 40 5 4 6
115 1 142 -1 4 -1 10 0 13 7 18 4 130 -2 130 -5 0 -6 3 -3 8 2 4 6 32 7 62 3
53 4 55 33 60 17 3 47 4 66 2 19 -1 45 -2 58 -2z"/>
</g>
</svg>
